<mxfile host="65bd71144e">
    <diagram id="l8TtVwg_FT4pCI3KlZWi" name="Page-1">
        <mxGraphModel dx="590" dy="380" grid="1" gridSize="10" guides="1" tooltips="1" connect="1" arrows="1" fold="1" page="1" pageScale="1" pageWidth="850" pageHeight="1100" math="0" shadow="0">
            <root>
                <mxCell id="0"/>
                <mxCell id="1" parent="0"/>
                <mxCell id="2" value="&lt;b&gt;Class:&amp;nbsp; Account&lt;/b&gt;" style="swimlane;fontStyle=0;childLayout=stackLayout;horizontal=1;startSize=30;horizontalStack=0;resizeParent=1;resizeParentMax=0;resizeLast=0;collapsible=1;marginBottom=0;whiteSpace=wrap;html=1;" parent="1" vertex="1">
                    <mxGeometry x="70" y="20" width="160" height="420" as="geometry"/>
                </mxCell>
                <mxCell id="3" value="&lt;b&gt;variables:&amp;nbsp;&lt;/b&gt;&lt;br&gt;-balance (2 point float)&lt;br&gt;- transactions (array of transaction instances)&lt;br&gt;-transactionLogs (array of strings which are generated from the transaction instances)&lt;br&gt;-instructions (a set string which is printed on the REPL to instruct user)&lt;br&gt;&lt;br&gt;&lt;br&gt;" style="text;strokeColor=none;fillColor=none;align=left;verticalAlign=middle;spacingLeft=4;spacingRight=4;overflow=hidden;points=[[0,0.5],[1,0.5]];portConstraint=eastwest;rotatable=0;whiteSpace=wrap;html=1;" parent="2" vertex="1">
                    <mxGeometry y="30" width="160" height="130" as="geometry"/>
                </mxCell>
                <mxCell id="18" value="&lt;b&gt;function: makeTransaction(type, date, amount)&lt;/b&gt;&lt;br&gt;&lt;i&gt;-once an account is instantiated, this function is used with the required data to create the relevant Transaction class instance&lt;/i&gt;" style="text;strokeColor=none;fillColor=none;align=left;verticalAlign=middle;spacingLeft=4;spacingRight=4;overflow=hidden;points=[[0,0.5],[1,0.5]];portConstraint=eastwest;rotatable=0;whiteSpace=wrap;html=1;" parent="2" vertex="1">
                    <mxGeometry y="160" width="160" height="130" as="geometry"/>
                </mxCell>
                <mxCell id="4" value="&lt;b&gt;private function: createLogRecord&lt;/b&gt;&lt;br&gt;&lt;i&gt;-once a transaction instance is created and not null type or amount, and stored in the account instance, a log is created&lt;/i&gt;" style="text;strokeColor=none;fillColor=none;align=left;verticalAlign=middle;spacingLeft=4;spacingRight=4;overflow=hidden;points=[[0,0.5],[1,0.5]];portConstraint=eastwest;rotatable=0;whiteSpace=wrap;html=1;" parent="2" vertex="1">
                    <mxGeometry y="290" width="160" height="130" as="geometry"/>
                </mxCell>
                <mxCell id="6" value="&lt;b&gt;Class: Transaction&lt;/b&gt;" style="swimlane;fontStyle=0;childLayout=stackLayout;horizontal=1;startSize=30;horizontalStack=0;resizeParent=1;resizeParentMax=0;resizeLast=0;collapsible=1;marginBottom=0;whiteSpace=wrap;html=1;" parent="1" vertex="1">
                    <mxGeometry x="340" y="170" width="300" height="440" as="geometry"/>
                </mxCell>
                <mxCell id="7" value="&lt;b&gt;private function:&amp;nbsp; deposit(balance, amount, date)&lt;/b&gt;&lt;br&gt;&lt;i&gt;-called by account instance with current balance, amount to add and today's date as arguments. returns as transaction instance with type data and new account instance balance&lt;/i&gt;" style="text;strokeColor=none;fillColor=none;align=left;verticalAlign=middle;spacingLeft=4;spacingRight=4;overflow=hidden;points=[[0,0.5],[1,0.5]];portConstraint=eastwest;rotatable=0;whiteSpace=wrap;html=1;" parent="6" vertex="1">
                    <mxGeometry y="30" width="300" height="90" as="geometry"/>
                </mxCell>
                <mxCell id="8" value="&lt;b&gt;private function: withdraw(balance, amount, date)&lt;/b&gt;&lt;br&gt;&lt;i&gt;- same as above except with amount being subtracted instead of added&lt;/i&gt;" style="text;strokeColor=none;fillColor=none;align=left;verticalAlign=middle;spacingLeft=4;spacingRight=4;overflow=hidden;points=[[0,0.5],[1,0.5]];portConstraint=eastwest;rotatable=0;whiteSpace=wrap;html=1;" parent="6" vertex="1">
                    <mxGeometry y="120" width="300" height="60" as="geometry"/>
                </mxCell>
                <mxCell id="9" value="&lt;b&gt;private function: dateCheck(date)&lt;/b&gt;&lt;br&gt;&lt;i&gt;- takes input date and returns valid current timestamp if date input formatting is incorrect. dates are available to input manually (rather than just being a live timestamp) because the acceptance criteria show a use case of transactions over multiple days, which would otherwise be impossible to test and implement&lt;/i&gt;&lt;br&gt;&lt;br&gt;&lt;b&gt;private function: amountCheck(amount)&lt;/b&gt;&lt;br&gt;&lt;i style=&quot;&quot;&gt;&lt;b&gt;- &lt;/b&gt;takes amount figure that's attempting to be used in the transaction calculations and checks if it is a number, and if it is not 0 (and therefore a pointless and invalid transaction)&lt;/i&gt;" style="text;strokeColor=none;fillColor=none;align=left;verticalAlign=middle;spacingLeft=4;spacingRight=4;overflow=hidden;points=[[0,0.5],[1,0.5]];portConstraint=eastwest;rotatable=0;whiteSpace=wrap;html=1;" parent="6" vertex="1">
                    <mxGeometry y="180" width="300" height="260" as="geometry"/>
                </mxCell>
                <mxCell id="10" value="&lt;b&gt;Class: StatementPrinter&lt;/b&gt;" style="swimlane;fontStyle=0;childLayout=stackLayout;horizontal=1;startSize=30;horizontalStack=0;resizeParent=1;resizeParentMax=0;resizeLast=0;collapsible=1;marginBottom=0;whiteSpace=wrap;html=1;" parent="1" vertex="1">
                    <mxGeometry x="40" y="510" width="260" height="140" as="geometry"/>
                </mxCell>
                <mxCell id="11" value="&lt;b&gt;function: printStatement(account)&lt;br&gt;&lt;/b&gt;&lt;i&gt;- takes an account instance as an argument, and returns a formatted print out statement of all transactions chronologically&lt;/i&gt;" style="text;strokeColor=none;fillColor=none;align=left;verticalAlign=middle;spacingLeft=4;spacingRight=4;overflow=hidden;points=[[0,0.5],[1,0.5]];portConstraint=eastwest;rotatable=0;whiteSpace=wrap;html=1;" parent="10" vertex="1">
                    <mxGeometry y="30" width="260" height="110" as="geometry"/>
                </mxCell>
                <mxCell id="15" style="edgeStyle=none;html=1;entryX=-0.003;entryY=-0.091;entryDx=0;entryDy=0;entryPerimeter=0;exitX=1;exitY=0.5;exitDx=0;exitDy=0;" parent="1" source="18" target="8" edge="1">
                    <mxGeometry relative="1" as="geometry"/>
                </mxCell>
                <mxCell id="17" style="edgeStyle=none;html=1;entryX=0.418;entryY=-0.034;entryDx=0;entryDy=0;entryPerimeter=0;" parent="1" source="4" target="10" edge="1">
                    <mxGeometry relative="1" as="geometry"/>
                </mxCell>
                <mxCell id="19" style="edgeStyle=none;html=1;entryX=1.005;entryY=0.123;entryDx=0;entryDy=0;entryPerimeter=0;exitX=0;exitY=0.5;exitDx=0;exitDy=0;" parent="1" source="7" target="18" edge="1">
                    <mxGeometry relative="1" as="geometry"/>
                </mxCell>
            </root>
        </mxGraphModel>
    </diagram>
    <diagram id="X3huD8HtOQgaazuK9_Nj" name="Page-2">
        <mxGraphModel dx="372" dy="380" grid="1" gridSize="10" guides="1" tooltips="1" connect="1" arrows="1" fold="1" page="1" pageScale="1" pageWidth="850" pageHeight="1100" math="0" shadow="0">
            <root>
                <mxCell id="0"/>
                <mxCell id="1" parent="0"/>
            </root>
        </mxGraphModel>
    </diagram>
</mxfile>